<?xml version="1.0" encoding="utf-8"?>
<!-- Generator: Adobe Illustrator 17.0.0, SVG Export Plug-In . SVG Version: 6.00 Build 0)  -->
<!DOCTYPE svg PUBLIC "-//W3C//DTD SVG 1.1//EN" "http://www.w3.org/Graphics/SVG/1.1/DTD/svg11.dtd">
<svg version="1.1" id="Layer_1" xmlns="http://www.w3.org/2000/svg" xmlns:xlink="http://www.w3.org/1999/xlink" x="0px" y="0px"
	 width="985px" height="985px" viewBox="-0.5 -0.5 985 985" enable-background="new -0.5 -0.5 985 985" xml:space="preserve">
<title>Ativo 6</title>
<g id="Camada_2">
	<g id="Camada_1-2">
		<path d="M559.25,77.967c-4.479,2.657-8.756,5.642-12.794,8.931l-1.911,1.662l-1.828,1.641c-1.412,1.225-2.742,2.596-4.154,3.863
			c-1.661,1.599-3.406,3.053-5.026,4.756l-1.869,2.077c-3.85,4.189-7.469,8.585-10.841,13.168l-0.395,0.561
			c-10.917,14.966-19.334,31.603-24.923,49.264c-0.145,0.498-0.228,0.872-0.353,1.35c-1.37,4.658-2.486,9.386-3.344,14.165
			c0,0.312-0.145,0.644-0.208,0.955c-0.062,0.312,0,0,0,0s-0.145,0.872-0.145,0.893c-0.166,1.018-0.208,1.703-0.332,2.617
			c-0.741,4.707-1.144,9.462-1.205,14.227c-0.009,4.049,0.317,8.092,0.976,12.088c0.291,1.703,0.872,3.095,1.288,4.673
			c0.411,1.853,0.917,3.683,1.516,5.483c0.617,1.306,1.311,2.576,2.077,3.801c0.672,1.44,1.45,2.828,2.326,4.154
			c0.889,0.933,1.862,1.781,2.908,2.534c0.969,1.046,2.041,1.992,3.198,2.825c9.201,5.296,23.22,3.282,38.464-5.545
			c37.758-21.787,69.535-76.846,69.41-120.046c0-17.321-5.296-30.261-14.414-35.536l0,0c-1.501-0.804-3.09-1.431-4.735-1.869
			c-0.353,0-0.852-0.27-1.184-0.332c-1.84-0.421-3.72-0.637-5.608-0.644h-0.935c-1.426,0.035-2.848,0.16-4.258,0.374
			c-0.685,0-1.35,0.166-2.077,0.312l-4.985,1.246c-1.163,0.353-2.43,0.789-3.676,1.267l-2.305,0.872l-0.914,0.374
			c-2.201,0.976-4.735,2.202-7.269,3.635L559.25,77.967z"/>
		<path d="M668.891,309.875l0.374,136.744l0.187,58.154l30.24-17.446l-0.768-272.782l-46.731,27L403.897,384.852l0.685,237.08
			v35.681l30.281-17.467l-0.623-212.801v-1.578l0,0l0,0c0.122-1.396,0.331-2.783,0.623-4.154c0.18-2.103,0.534-4.187,1.059-6.231
			c0.312-1.08,0.893-2.077,1.288-3.115c0.771-2.358,1.729-4.65,2.866-6.854c0.249-0.415,0.602-0.768,0.872-1.184
			c1.613-2.705,3.506-5.232,5.649-7.539l0.395-0.332c2.187-2.313,4.649-4.35,7.332-6.065c1.376-0.859,2.874-1.504,4.445-1.911
			c3.152-1.325,6.53-2.03,9.948-2.077c4.069-0.013,8.068,1.055,11.589,3.095c7.062,4.05,11.174,11.423,11.838,20.291
			c0.149,0.74,0.246,1.49,0.291,2.243L494.077,984l30.24-17.446l-1.163-398.394c0.494-3.371,0.985-6.743,1.475-10.115
			c0.596-1.707,1.289-3.378,2.077-5.005c1.044-3.47,2.862-6.659,5.317-9.325c0.908-1.382,1.899-2.707,2.97-3.967
			c1.422-1.417,2.957-2.716,4.59-3.884c0.976-0.768,1.828-1.765,2.866-2.43l0.955-0.602c0,0,0.145-0.145,0.228-0.187h0.187l0,0
			c0.291-0.166,0.602-0.228,0.893-0.374c8.308-4.341,17.051-4.548,24.341-0.353c6.536,3.93,10.82,10.727,11.548,18.318
			c0.347,1.315,0.528,2.669,0.54,4.029l0.457,181.398l0.561,197.556l30.302-17.612l-1.122-394.614c0-0.312-0.125-0.602-0.125-0.893
			l-0.519-196.289c0.448-14.339,7.919-27.54,19.98-35.308c1.443-0.854,3.003-1.491,4.631-1.89c6.921-3.163,14.929-2.87,21.6,0.789
			C664.384,291.744,668.849,299.948,668.891,309.875z"/>
		<path d="M371.934,110.783l-0.395,2.388c0,0.208-0.291,1.62-0.332,1.828c-0.631,4.486-0.944,9.011-0.935,13.541
			c0,17.28,5.255,30.219,14.31,35.474l71.654,41.538c-0.166-2.451-0.249-4.922-0.249-7.477c0.023-6.641,0.544-13.271,1.558-19.835
			c0.187-1.267,0.415-2.513,0.623-3.78l0,0c0.332-1.89,0.893-3.635,1.267-5.483c1.059-5.109,2.077-10.198,3.676-15.307l0,0
			c0-0.228,0.166-0.415,0.249-0.644c10.194-32.326,28.482-61.51,53.127-84.78c1.329-1.205,2.575-2.513,3.925-3.697l1.184-1.038
			c1.516-1.308,3.012-2.658,4.569-3.884c5.069-4.074,10.428-7.774,16.034-11.07l0,0c0.229-0.137,0.464-0.262,0.706-0.374
			c2.305-1.308,4.59-2.513,6.854-3.572L478.168,2.949c-0.809-0.451-1.641-0.86-2.492-1.225l-2.077-0.685l-2.264-0.561
			c-1.081-0.237-2.178-0.397-3.282-0.478c-1.807,0-2.513,0-3.261,0l-2.596,0.291l-1.786,0.166l-3.385,0.748
			c-0.228,0-1.558,0.353-1.786,0.395c-2.388,0.81-3.78,1.308-5.192,1.848c-0.312,0.125-1.558,0.561-1.869,0.644
			c-3.178,1.475-5.878,2.762-8.598,4.341c-4.41,2.585-8.617,5.501-12.586,8.723c-0.727,0.582-1.371,1.205-2.077,1.807l-4.278,3.718
			c-1.267,1.08-2.534,2.077-3.738,3.323l-6.522,6.937c-3.032,3.406-4.943,5.712-6.771,8.079c0,0-2.077,2.679-2.077,2.762
			c0,0.083-1.869,2.555-1.911,2.575c-2.202,3.115-3.572,5.151-4.902,7.228c-1.329,2.077-2.409,4.008-3.593,6.023
			c-1.558,2.742-2.472,4.341-3.323,5.961c-1.122,2.077-2.077,4.154-3.095,6.085c-1.018,1.932-1.765,3.759-2.575,5.649
			c-1.163,2.638-2.077,4.756-2.845,6.875c-0.768,2.118-1.641,4.382-2.368,6.584l-0.602,1.973l-0.893,2.97l-0.706,2.264
			c-0.727,2.679-1.392,5.338-1.952,7.996L371.934,110.783z"/>
		<path d="M681.955,185.136l-45.298-26.314c-11.838,34.02-33.916,66.461-61.061,87.729L681.955,185.136z"/>
		<path d="M543.694,264.952c-8.761,3.508-18.084,5.401-27.519,5.587c-10.092,0.089-20.026-2.506-28.786-7.518h-0.125l0,0l0,0
			l-55.973-32.483l-130.16,75.06l58.486,33.999l27.311,15.868L543.694,264.952z"/>
		<path d="M460.057,983.896l-0.914-318.453l-12.835,7.477l-50.012,28.807c-1.303,0.749-2.7,1.321-4.154,1.703
			c-0.644,0.166-1.329,0.166-2.077,0.27c-0.775,0.147-1.559,0.244-2.347,0.291l0,0c-0.228,0-0.478,0-0.727,0
			c-1.225-0.034-2.443-0.194-3.635-0.478c-0.208,0-0.374-0.187-0.582-0.249c-1.224-0.333-2.403-0.814-3.51-1.433l0,0l0,0
			l-5.649-3.385l0.727,235.626L460.057,983.896z"/>
		<polygon points="284.309,335.089 285.077,607.684 370.75,657.468 370.501,572.73 369.961,384.873 		"/>
	</g>
</g>
</svg>
