<?xml version="1.0" encoding="utf-8"?>
<!-- Generator: Adobe Illustrator 17.0.0, SVG Export Plug-In . SVG Version: 6.00 Build 0)  -->
<!DOCTYPE svg PUBLIC "-//W3C//DTD SVG 1.1//EN" "http://www.w3.org/Graphics/SVG/1.1/DTD/svg11.dtd">
<svg version="1.1" id="Layer_1" xmlns="http://www.w3.org/2000/svg" xmlns:xlink="http://www.w3.org/1999/xlink" x="0px" y="0px"
	 width="985px" height="985px" viewBox="-140 163.674 985 985" enable-background="new -140 163.674 985 985" xml:space="preserve">
<title>Ativo 4</title>
<g id="Camada_2">
	<g id="Camada_1-2">
		<path d="M179.132,226.681c-3.335,1.962-6.518,4.171-9.523,6.609c-0.476,0.4-0.933,0.819-1.39,1.238l-1.352,1.219
			c-1.048,0.895-2.038,1.905-3.066,2.857s-2.533,2.247-3.809,3.524l-1.371,1.448c-2.818,3.114-5.47,6.376-7.942,9.771l-0.286,0.4
			c-8.091,11.089-14.324,23.421-18.456,36.512c-0.114,0.362-0.171,0.629-0.267,0.99c-1.017,3.45-1.843,6.954-2.476,10.494
			c0,0.229-0.114,0.476-0.152,0.705l0,0c0,0-0.114,0.629-0.133,0.648c-0.114,0.762-0.133,1.257-0.229,1.905
			c-0.54,3.53-0.826,7.095-0.857,10.666c0.002,2.999,0.25,5.993,0.743,8.952c0.249,1.173,0.567,2.331,0.952,3.466
			c0.293,1.374,0.668,2.728,1.124,4.057c0.468,0.975,1.003,1.917,1.6,2.819c0.502,1.047,1.075,2.059,1.714,3.028
			c0.657,0.7,1.377,1.338,2.152,1.905c0.719,0.778,1.517,1.481,2.381,2.095c6.799,3.809,17.142,2.419,28.569-4.114
			c27.96-16.132,51.425-56.872,51.425-88.927c0-12.837-3.943-22.436-10.685-26.322l0,0c-1.11-0.598-2.286-1.065-3.504-1.39
			l-0.876-0.248c-1.363-0.309-2.755-0.469-4.152-0.476h-0.705c-1.052,0.032-2.102,0.127-3.143,0.286c-0.495,0-0.99,0.114-1.505,0.21
			l-3.676,0.933c-0.857,0.267-1.79,0.59-2.724,0.933c-0.571,0.21-1.143,0.419-1.714,0.667l-0.686,0.267
			c-1.619,0.724-3.504,1.619-5.371,2.686L179.132,226.681z"/>
		<path d="M283.124,509.67l-22.513-13.066l-0.248-98.126c0.319-6.792-3.11-13.212-8.933-16.723
			c-4.944-2.693-10.873-2.884-15.98-0.514c-1.203,0.261-2.35,0.732-3.39,1.39c-8.957,5.774-14.471,15.611-14.723,26.265v15.237
			l-50.568-29.426l81.27-46.911l34.588-19.884L283.124,509.67z"/>
		<path d="M40.38,250.984l-0.305,1.771c0,0.152-0.21,1.181-0.248,1.352c-0.46,3.326-0.689,6.68-0.686,10.037
			c0,12.799,3.809,22.379,10.59,26.265l53.082,30.874c-0.114-1.809-0.171-3.657-0.19-5.523c0.029-4.929,0.418-9.85,1.162-14.723
			c0.133-0.933,0.305-1.905,0.476-2.781l0,0c0.229-1.39,0.648-2.686,0.933-4.057c0.781-3.809,1.562-7.618,2.724-11.428l0,0
			c0.065-0.149,0.123-0.302,0.171-0.457c7.565-23.958,21.114-45.59,39.369-62.853c0.99-0.895,1.905-1.905,2.914-2.743l0.857-0.762
			c1.143-0.971,2.247-1.905,3.39-2.876c3.754-3.025,7.727-5.769,11.885-8.209l0,0c0.171-0.106,0.35-0.202,0.533-0.286
			c1.695-0.971,3.39-1.905,5.066-2.647l-53.044-30.836c-0.619-0.337-1.254-0.643-1.905-0.914l-1.467-0.514l-1.676-0.4
			c-0.803-0.176-1.618-0.297-2.438-0.362c-1.352,0-1.905,0-2.419,0l-1.905,0.21l-1.333,0.114l-2.514,0.571
			c-0.171,0-1.143,0.267-1.314,0.286c-1.771,0.609-2.8,0.971-3.809,1.371c-0.248,0-1.162,0.419-1.39,0.476
			c-2.343,1.086-4.343,2.038-6.38,3.219c-3.264,1.919-6.378,4.084-9.314,6.476c-0.533,0.419-1.009,0.876-1.505,1.314l-3.295,2.762
			c-0.933,0.8-1.905,1.581-2.762,2.457l-4.838,5.142c-2.171,2.533-3.581,4.171-4.933,6.076l-1.505,1.905l-1.409,1.905
			c-1.638,2.305-2.666,3.809-3.638,5.371c-0.971,1.562-1.905,2.952-2.724,4.438c-1.162,2.038-1.905,3.219-2.476,4.419
			c-0.819,1.562-1.562,3.028-2.286,4.514s-1.295,2.781-1.905,4.19c-0.857,1.905-1.505,3.505-2.095,5.085
			c-0.59,1.581-1.219,3.257-1.752,4.895l-0.457,1.448l-0.667,2.19l-0.514,1.676c-0.552,1.905-1.048,3.962-1.467,5.923L40.38,250.984
			z"/>
		<path d="M270.039,306.047l-33.559-19.484c-8.78,25.198-25.122,49.254-45.235,64.986L270.039,306.047z"/>
		<path d="M167.666,365.09l-26.17,15.237c-1.35-0.707-2.736-1.343-4.152-1.905c-0.133,0-1.771-0.629-1.771-0.629
			s-1.505-0.514-1.752-0.629c-0.687-0.108-1.363-0.281-2.019-0.514l-1.371-0.248c-0.452-0.138-0.919-0.221-1.39-0.248
			c-1.505-0.248-3.143-0.495-4.781-0.629h-1.39c-1.269-0.068-2.54-0.068-3.809,0c-0.114,0-1.257,0.133-1.505,0.133l-2.267,0.248
			c-0.381,0-1.638,0.114-2.019,0.114s-1.124,0.267-1.752,0.381c-1.009,0.248-2.019,0.381-3.028,0.629
			c-0.484,0.189-0.989,0.317-1.505,0.381c-0.629,0.133-1.257,0.381-1.638,0.495c-1.619,0.514-3.39,1.143-5.028,1.771
			c-0.945,0.311-1.868,0.686-2.762,1.124c-2.762,1.257-5.714,2.647-8.552,4.285c-4.351,2.549-8.514,5.407-12.456,8.552
			c-0.876,0.762-1.752,1.505-2.647,2.381l-2.628,2.267c-1.39,1.143-2.781,2.4-4.152,3.657c-0.629,0.629-1.143,1.257-2.4,2.647
			l-1.752,1.905c-0.414,0.34-0.796,0.716-1.143,1.124c-0.495,0.495-1.124,1.124-1.638,1.752c-1.752,2.019-3.524,4.152-5.142,6.171
			l-4.285,5.714c-1.257,1.905-2.381,3.638-3.524,5.409c-0.495,0.762-1.009,1.505-1.505,2.381l-14.475-8.418l-43.349-25.293
			l96.469-55.729l41.273,24.036h0.114v0.114h0.152c6.503,3.734,13.891,5.648,21.389,5.542
			C154.288,369.116,161.183,367.691,167.666,365.09z"/>
		<path d="M39.218,574.599l-63.138,36.34l-0.629-193.833l58.872,34.283c-0.248,0.743-0.629,1.505-0.876,2.247
			c-0.762,2.019-1.524,4.038-2.152,6.038l-0.876,3.028l-0.629,1.905c0,0.133-0.495,1.505-0.495,1.638
			c-0.629,2.514-1.257,4.895-1.771,7.428c-0.264,1.074-0.474,2.161-0.629,3.257l-0.629,4.038c-0.114,0.248-0.248,1.505-0.381,1.752
			c-0.487,4.3-0.735,8.624-0.743,12.951c0,17.142,4.895,31.331,13.961,40.759L39.218,574.599z"/>
		<path d="M190.236,462.836c-3.338,1.957-6.522,4.167-9.523,6.609l-1.409,1.238l-1.352,1.219c-1.048,0.895-2.038,1.905-3.066,2.857
			c-1.028,0.952-2.533,2.247-3.809,3.524l-1.371,1.448c-2.861,3.103-5.545,6.365-8.038,9.771c-0.106,0.125-0.201,0.259-0.286,0.4
			c-8.039,11.094-14.227,23.418-18.322,36.493c-0.114,0.381-0.171,0.648-0.267,1.009c-1.017,3.45-1.843,6.954-2.476,10.494
			c0,0.229-0.095,0.476-0.152,0.705l0,0c0,0-0.114,0.628-0.114,0.648c-0.114,0.762-0.152,1.257-0.248,1.905
			c-0.541,3.492-0.834,7.018-0.876,10.552c-0.014,2.999,0.229,5.994,0.724,8.952c0.258,1.171,0.576,2.328,0.952,3.466
			c0.295,1.373,0.67,2.728,1.124,4.057c0.472,0.973,1.007,1.915,1.6,2.819c0.501,1.052,1.08,2.064,1.733,3.028
			c0.65,0.7,1.364,1.338,2.133,1.905c0.715,0.778,1.513,1.474,2.381,2.076c6.799,3.924,17.142,2.438,28.569-4.095
			c27.96-16.132,51.52-56.872,51.425-88.927c0-12.837-3.924-22.436-10.685-26.322l0,0c-1.112-0.595-2.287-1.061-3.505-1.39
			l-0.876-0.248c-1.369-0.308-2.768-0.467-4.171-0.476h-0.686c-1.058,0.034-2.113,0.123-3.162,0.267l-1.486,0.229l-3.695,0.933
			c-0.857,0.267-1.79,0.59-2.724,0.933l-1.714,0.667l-0.667,0.267c-1.89,0.819-3.734,1.741-5.523,2.762
			C190.522,462.671,190.375,462.747,190.236,462.836z"/>
		<path d="M271.449,634.633l0.286,101.307l0.133,43.083l22.417-12.932l-0.571-202.081l-34.626,19.98L75.158,690.19l0.495,175.625
			v26.436l22.513-12.913l-0.457-157.627v-1.124l0,0l0,0c0.087-1.056,0.24-2.106,0.457-3.143c0.093-1.513,0.309-3.017,0.648-4.495
			c0.229-0.8,0.667-1.543,0.971-2.324c0.576-1.767,1.303-3.481,2.171-5.123c0.19-0.324,0.457-0.571,0.648-0.876
			c1.211-2.048,2.641-3.958,4.266-5.695c0.087-0.086,0.182-0.163,0.286-0.229c1.616-1.723,3.439-3.24,5.428-4.514
			c1.047-0.618,2.175-1.086,3.352-1.39c2.306-1.004,4.781-1.559,7.295-1.638c3.017-0.008,5.982,0.787,8.59,2.305
			c5.282,3.198,8.581,8.856,8.761,15.028c0.115,0.546,0.191,1.1,0.229,1.657l1.2,423.874l22.398-12.913l-0.838-295.217
			c0.09-1.133,0.256-2.26,0.495-3.371c0.067-1.389,0.239-2.77,0.514-4.133c0.434-1.264,0.949-2.498,1.543-3.695
			c0.434-1.214,0.937-2.404,1.505-3.562c0.744-1.161,1.551-2.28,2.419-3.352c0.683-1.023,1.42-2.009,2.209-2.952
			c1.061-1.045,2.201-2.006,3.409-2.876c0.724-0.571,1.352-1.295,2.114-1.79l0.705-0.438l0.171-0.152c0,0,0,0,0.133,0l0,0
			c0.21-0.114,0.438-0.152,0.648-0.267c5.55-3.244,12.393-3.345,18.037-0.267c4.836,2.922,8.006,7.957,8.552,13.58
			c0.258,0.976,0.393,1.981,0.4,2.99l0.343,134.371l0.4,146.351l22.436-12.932l-0.838-292.341c0-0.229,0-0.438,0-0.667
			l-0.381-145.399c0.32-10.644,5.853-20.45,14.799-26.227c1.023-0.625,2.133-1.094,3.295-1.39c5.129-2.328,11.055-2.11,15.999,0.59
			C268.281,621.473,271.718,627.858,271.449,634.633z"/>
		<path d="M51.465,487.139l-0.305,1.771c0,0.152-0.21,1.181-0.229,1.352c-0.475,3.325-0.71,6.679-0.705,10.037
			c0,12.799,3.904,22.379,10.609,26.265l53.082,30.893c-0.133-1.809-0.19-3.657-0.19-5.542c0.023-4.922,0.405-9.837,1.143-14.704
			c0.152-0.933,0.324-1.905,0.476-2.781l0,0c0.248-1.39,0.667-2.686,0.933-4.057c0.8-3.809,1.562-7.618,2.724-11.332l0,0
			c0-0.152,0.133-0.305,0.19-0.476c7.548-23.961,21.093-45.596,39.35-62.853c0.99-0.895,1.905-1.905,2.914-2.743l0.876-0.762
			c1.124-0.971,2.228-1.905,3.39-2.895c3.749-3.017,7.715-5.754,11.866-8.19l0,0l0.533-0.267c1.695-0.971,3.39-1.905,5.066-2.647
			l-53.082-30.855c-0.615-0.345-1.251-0.651-1.905-0.914l-1.543-0.514l-1.676-0.4c-0.804-0.17-1.618-0.284-2.438-0.343
			c-1.333,0-1.905,0-2.4,0l-1.905,0.21h-1.314l-2.514,0.571c-0.171,0-1.143,0.267-1.314,0.286c-1.771,0.59-2.8,0.971-3.809,1.371
			l-1.39,0.476c-2.343,1.086-4.343,2.038-6.361,3.219c-3.269,1.914-6.389,4.072-9.333,6.457c-0.533,0.438-1.009,0.895-1.505,1.333
			l-3.181,2.762c-0.914,0.8-1.905,1.581-2.743,2.457l-4.838,5.142c-2.228,2.533-3.543,4.19-4.971,6.095c0,0-1.467,1.905-1.524,2.038
			l-1.409,1.905c-1.638,2.305-2.666,3.809-3.638,5.352c-0.971,1.543-1.905,2.971-2.724,4.457c-1.143,2.038-1.905,3.219-2.457,4.419
			c-0.838,1.543-1.581,3.028-2.305,4.514s-1.295,2.781-1.905,4.19c-0.857,1.905-1.505,3.505-2.095,5.085
			c-0.59,1.581-1.219,3.257-1.752,4.876l-0.457,1.467c0,0-0.648,2.171-0.648,2.19l-0.533,1.676
			c-0.552,1.905-1.028,3.962-1.448,5.923L51.465,487.139z"/>
		<path d="M281.124,542.22l-33.559-19.503c-8.761,25.198-25.122,49.254-45.235,64.986L281.124,542.22z"/>
		<path d="M178.713,601.359c-6.504,2.586-13.42,3.98-20.418,4.114c-7.478,0.07-14.84-1.849-21.332-5.562l0,0l0,0l0,0L95.443,575.78
			l-96.431,55.672l43.33,25.179l20.227,11.771L178.713,601.359z"/>
		<path d="M116.736,1133.948l-0.667-235.907l-9.523,5.466l-37.045,21.408c-0.959,0.545-1.983,0.967-3.047,1.257
			c-0.49,0.101-0.986,0.165-1.486,0.19c-0.577,0.123-1.163,0.199-1.752,0.229l0,0c-0.171,0-0.343,0-0.533,0
			c-0.912-0.025-1.818-0.147-2.705-0.362c-0.152,0-0.286-0.133-0.419-0.171c-0.906-0.26-1.781-0.617-2.609-1.067l0,0l0,0
			l-4.152-2.419l0.552,174.559L116.736,1133.948z"/>
		<polygon points="-13.445,653.298 -12.873,855.245 50.57,892.118 50.398,829.342 49.998,690.171 		"/>
		<path d="M581.121,250.584c-3.335,1.962-6.518,4.171-9.523,6.609l-1.39,1.238l-1.352,1.219c-1.048,0.914-2.038,1.905-3.066,2.857
			s-2.533,2.266-3.809,3.524l-1.371,1.467c-2.862,3.101-5.552,6.356-8.057,9.752c-0.084,0.141-0.18,0.275-0.286,0.4
			c-8.094,11.087-14.328,23.419-18.456,36.512c-0.114,0.362-0.171,0.648-0.267,1.009c-1.021,3.449-1.848,6.953-2.476,10.494
			c0,0.229-0.114,0.476-0.152,0.705l0,0c0,0-0.095,0.648-0.114,0.667c-0.114,0.743-0.133,1.257-0.229,1.905
			c-0.547,3.485-0.846,7.005-0.895,10.533c0.002,3.006,0.25,6.006,0.743,8.971c0.252,1.166,0.57,2.317,0.952,3.447
			c0.29,1.374,0.666,2.729,1.124,4.057c0.468,0.981,1.003,1.929,1.6,2.838c0.498,1.043,1.071,2.049,1.714,3.009
			c0.657,0.7,1.378,1.337,2.152,1.905c0.72,0.773,1.517,1.468,2.381,2.076c6.799,3.923,17.142,2.438,28.569-4.095
			c27.96-16.151,51.425-56.872,51.425-88.946c0-12.837-3.943-22.417-10.685-26.322l0,0c-1.107-0.6-2.284-1.061-3.505-1.371
			l-0.876-0.267c-1.364-0.299-2.755-0.458-4.152-0.476h-0.705c-1.052,0.032-2.102,0.127-3.143,0.286l-1.505,0.229l-3.676,0.914
			c-0.876,0.267-1.79,0.59-2.724,0.952l-1.714,0.648l-0.686,0.267c-1.619,0.724-3.505,1.638-5.371,2.705L581.121,250.584z"/>
		<path d="M488.804,556.086l0.114,19.503l-22.379,12.951l-0.267-54.586c3.627,7.985,9.652,14.643,17.237,19.046L488.804,556.086z"/>
		<path d="M685.019,463.388c-3.416-9.077-9.835-16.711-18.189-21.637h-0.133l-4.266-2.514v-16.856
			c0.286-6.784-3.135-13.188-8.933-16.723c-4.944-2.696-10.873-2.887-15.98-0.514c-1.163,0.275-2.271,0.745-3.276,1.39
			c-4.207,2.584-7.707,6.17-10.19,10.437l-25.903-15.104l51.939-30.055l34.569-20.056L685.019,463.388z"/>
		<path d="M442.427,274.906l-0.305,1.752c0,0.171-0.21,1.2-0.248,1.352c-0.459,3.326-0.688,6.68-0.686,10.037
			c0,12.799,3.809,22.379,10.59,26.284l53.158,30.836c-0.114-1.79-0.171-3.638-0.19-5.523c0.029-4.923,0.418-9.837,1.162-14.704
			c0.133-0.933,0.305-1.905,0.476-2.8l0,0c0.229-1.39,0.648-2.686,0.933-4.057c0.781-3.809,1.562-7.618,2.724-11.332l0,0
			c0.066-0.156,0.123-0.315,0.171-0.476c7.557-23.961,21.108-45.596,39.369-62.853c0.99-0.895,1.905-1.905,2.914-2.743l0.857-0.781
			c1.143-0.952,2.247-1.905,3.39-2.876c3.759-3.013,7.731-5.75,11.885-8.19l0,0l0.533-0.267c1.695-0.971,3.39-1.905,5.066-2.647
			l-53.12-30.912c-0.619-0.332-1.254-0.631-1.905-0.895l-1.524-0.514l-1.676-0.419c-0.804-0.165-1.619-0.273-2.438-0.324
			c-1.352,0-1.905,0-2.419,0l-1.905,0.21l-1.314,0.114l-2.514,0.571l-1.314,0.286c-1.771,0.59-2.8,0.952-3.809,1.371l-1.39,0.476
			c-2.343,1.086-4.343,2.038-6.38,3.2c-3.256,1.933-6.368,4.097-9.314,6.476c-0.533,0.438-1.009,0.895-1.505,1.333l-3.181,2.762
			c-0.933,0.8-1.905,1.562-2.762,2.457l-4.838,5.123c-2.247,2.533-3.657,4.247-5.009,6l-1.505,2.038l-1.409,1.905
			c-1.638,2.305-2.666,3.809-3.638,5.352c-0.971,1.543-1.905,2.971-2.724,4.457c-1.162,2.038-1.905,3.219-2.476,4.419
			c-0.819,1.543-1.562,3.009-2.286,4.495c-0.724,1.486-1.295,2.8-1.905,4.19c-0.857,1.905-1.505,3.524-2.095,5.085
			s-1.219,3.257-1.752,4.895l-0.457,1.467l-0.667,2.19l-0.514,1.676c-0.552,1.905-1.048,3.962-1.467,5.923L442.427,274.906z"/>
		<path d="M672.086,329.988l-33.559-19.503c-8.78,25.198-25.122,49.254-45.235,64.986L672.086,329.988z"/>
		<path d="M532.573,390.06c-2.647,1.257-5.542,2.514-8.304,4.152c-4.303,2.557-8.421,5.415-12.323,8.552
			c-1.009,0.743-1.905,1.638-2.781,2.381l-2.628,2.267c-1.408,1.148-2.756,2.369-4.038,3.657c-0.629,0.629-1.257,1.257-2.514,2.628
			l-1.752,1.905l-1.009,1.143c-0.649,0.516-1.237,1.103-1.752,1.752c-1.771,2.019-3.524,4.152-5.047,6.285l-4.266,5.714
			c-1.257,1.771-2.514,3.524-3.657,5.409c-1.143,1.886-2,3.143-3.39,5.542l-25.598,14.78l-20.246-11.828l-43.406-25.16
			l96.488-55.729l41.445,24.036c0,0.114,0,0.114,0.114,0.114C529.43,388.536,530.935,389.298,532.573,390.06z"/>
		<path d="M441.379,603.016l-38.492,22.132c-1.926,1.124-3.517,2.741-4.609,4.685c-0.133,0.114-0.133,0.362-0.248,0.495
			c-0.413,0.805-0.751,1.647-1.009,2.514c-0.133,0.381-0.133,0.876-0.248,1.257c-0.154,0.663-0.244,1.339-0.267,2.019v17.732
			l-18.475-10.818l-0.629-201.89l63.519,36.854L441.379,603.016z"/>
		<path d="M625.499,472.149c-3.342,1.958-6.526,4.174-9.523,6.628c-0.495,0.4-0.952,0.8-1.409,1.219l-1.352,1.219
			c-1.048,0.914-2.038,1.905-3.066,2.857c-1.029,0.952-2.533,2.267-3.809,3.524l-1.371,1.467c-2.861,3.096-5.545,6.352-8.038,9.752
			l-0.286,0.419c-8.096,11.082-14.336,23.407-18.475,36.493c-0.114,0.362-0.171,0.648-0.267,1.009
			c-1.021,3.449-1.848,6.953-2.476,10.494c0,0.229-0.095,0.476-0.152,0.705l0,0c0,0-0.114,0.648-0.114,0.667
			c-0.114,0.743-0.152,1.257-0.248,1.905c-0.55,3.485-0.843,7.005-0.876,10.533c-0.014,3.005,0.229,6.006,0.724,8.971
			c0.209,1.257,0.648,2.286,0.952,3.466c0.293,1.367,0.668,2.716,1.124,4.038c0.468,0.981,1.003,1.93,1.6,2.838
			c0.501,1.051,1.08,2.064,1.733,3.028c0.655,0.695,1.369,1.332,2.133,1.905c0.719,0.773,1.517,1.468,2.381,2.076
			c6.8,3.924,17.142,2.438,28.569-4.095c27.96-16.151,51.52-56.872,51.425-88.946c0-12.818-3.924-22.417-10.685-26.322l0,0
			c-1.109-0.597-2.285-1.057-3.505-1.371l-0.876-0.267c-1.371-0.298-2.768-0.457-4.171-0.476h-0.686
			c-1.058,0.025-2.114,0.114-3.162,0.267c-0.495,0-0.99,0.133-1.486,0.229l-3.695,0.914c-0.857,0.267-1.79,0.609-2.724,0.952
			l-1.714,0.648l-0.667,0.267c-1.638,0.724-3.504,1.638-5.39,2.705L625.499,472.149z"/>
		<path d="M706.712,643.965l0.286,101.288l0.133,43.102l22.417-12.951l-0.571-202.061l-34.626,19.979L510.422,699.504l0.495,175.644
			v26.417l22.589-12.932l-0.457-157.627v-1.124l0,0l0,0c0.088-1.049,0.241-2.093,0.457-3.124c0.093-1.52,0.309-3.029,0.648-4.514
			c0.229-0.8,0.667-1.524,0.971-2.305c0.569-1.769,1.296-3.484,2.171-5.123c0.19-0.324,0.457-0.571,0.648-0.895
			c1.186-2.004,2.585-3.875,4.171-5.581c0.087-0.086,0.182-0.163,0.286-0.229c1.622-1.725,3.451-3.241,5.447-4.514
			c1.043-0.626,2.172-1.095,3.352-1.39c2.306-1.004,4.781-1.56,7.295-1.638c3.014-0.007,5.977,0.782,8.59,2.286
			c5.279,3.209,8.577,8.871,8.761,15.047c0.115,0.546,0.191,1.1,0.229,1.657l1.2,423.874l22.398-12.932l-0.838-295.121
			c0.09-1.133,0.256-2.26,0.495-3.371c0.093-1.391,0.29-2.772,0.59-4.133c0.434-1.264,0.949-2.498,1.543-3.695
			c0.434-1.214,0.937-2.404,1.505-3.562c0.734-1.167,1.542-2.287,2.419-3.352c0.683-1.023,1.42-2.009,2.209-2.952
			c1.061-1.045,2.201-2.006,3.409-2.876c0.724-0.571,1.352-1.295,2.114-1.79l0.705-0.457l0.171-0.133h0.133l0,0
			c0.209-0.114,0.438-0.152,0.648-0.267c5.55-3.244,12.393-3.345,18.037-0.267c4.838,2.92,8.009,7.956,8.552,13.58
			c0.257,0.97,0.391,1.968,0.4,2.971l0.305,134.257l0.4,146.351l22.456-13.028l-0.838-292.321c0-0.229,0-0.438,0-0.667
			l-0.381-145.418c0.32-10.644,5.853-20.45,14.799-26.227c1.027-0.612,2.137-1.073,3.295-1.371c5.129-2.328,11.055-2.11,15.999,0.59
			C703.601,630.77,707.019,637.181,706.712,643.965z"/>
		<path d="M486.728,496.509l-0.305,1.771c0,0.152-0.21,1.181-0.229,1.333c-0.474,3.325-0.71,6.679-0.705,10.037
			c0,12.799,3.809,22.398,10.609,26.284l53.082,30.836c-0.133-1.79-0.19-3.638-0.19-5.523c0.023-4.922,0.405-9.837,1.143-14.704
			c0.133-0.933,0.324-1.905,0.476-2.8l0,0c0.248-1.39,0.667-2.685,0.933-4.057c0.8-3.809,1.562-7.619,2.724-11.428l0,0
			c0-0.152,0.133-0.305,0.19-0.476c7.543-23.963,21.089-45.599,39.349-62.853c0.99-0.895,1.905-1.905,2.914-2.743l0.876-0.781
			c1.124-0.952,2.228-1.905,3.39-2.876c3.749-3.017,7.715-5.754,11.866-8.19l0,0l0.533-0.267c1.695-0.971,3.39-1.905,5.066-2.647
			l-53.025-30.912c-0.615-0.345-1.251-0.651-1.905-0.914l-1.543-0.514l-1.676-0.419c-0.806-0.155-1.62-0.263-2.438-0.324
			c-1.333,0-1.905,0-2.4,0l-1.905,0.21l-1.314,0.114l-2.514,0.571l-1.314,0.286c-1.771,0.59-2.8,0.971-3.809,1.371l-1.39,0.476
			c-2.343,1.086-4.343,2.038-6.361,3.2c-3.265,1.928-6.384,4.092-9.333,6.476c-0.533,0.438-1.009,0.895-1.505,1.333l-3.181,2.762
			c-0.914,0.8-1.905,1.581-2.743,2.457l-4.838,5.142c-2.266,2.514-3.657,4.228-5.009,5.981c0,0-1.467,1.905-1.524,2.038
			l-1.409,1.905c-1.638,2.305-2.666,3.809-3.638,5.352c-0.971,1.543-1.905,2.971-2.724,4.457c-1.143,2.038-1.905,3.219-2.457,4.419
			c-0.838,1.543-1.581,3.028-2.305,4.514c-0.724,1.486-1.295,2.781-1.905,4.19c-0.857,1.905-1.505,3.504-2.095,5.085
			s-1.219,3.238-1.752,4.876l-0.457,1.467c0,0-0.648,2.171-0.648,2.19l-0.533,1.676c-0.552,1.905-1.029,3.962-1.448,5.923
			L486.728,496.509z"/>
		<path d="M716.35,551.553l-33.521-19.503c-8.761,25.198-25.122,49.254-45.235,64.986L716.35,551.553z"/>
		<path d="M613.976,610.672c-6.497,2.59-13.406,3.99-20.398,4.133c-7.477,0.061-14.837-1.857-21.332-5.562l0,0l0,0l0,0
			l-41.33-24.036l-96.45,55.691l43.14,25.122l20.227,11.752L613.976,610.672z"/>
		<path d="M552,1143.262l-0.667-235.907l-9.523,5.485l-37.064,21.408c-1.356,0.875-2.921,1.375-4.533,1.448
			c-0.579,0.114-1.164,0.19-1.752,0.229l0,0c-0.178,0.009-0.356,0.009-0.533,0c-0.911-0.019-1.818-0.134-2.705-0.343
			c-0.152,0-0.286-0.133-0.419-0.171c-0.907-0.266-1.781-0.63-2.609-1.086l0,0l0,0l-4.152-2.4l0.552,174.559L552,1143.262z"/>
		<polygon points="421.8,662.63 422.39,864.578 485.833,901.451 485.662,838.675 485.262,699.504 		"/>
	</g>
</g>
</svg>
