<?xml version="1.0" encoding="utf-8"?>
<!-- Generator: Adobe Illustrator 17.0.0, SVG Export Plug-In . SVG Version: 6.00 Build 0)  -->
<!DOCTYPE svg PUBLIC "-//W3C//DTD SVG 1.1//EN" "http://www.w3.org/Graphics/SVG/1.1/DTD/svg11.dtd">
<svg version="1.1" id="Layer_1" xmlns="http://www.w3.org/2000/svg" xmlns:xlink="http://www.w3.org/1999/xlink" x="0px" y="0px"
	 width="985px" height="985px" viewBox="-140 163.651 985 985" enable-background="new -140 163.651 985 985" xml:space="preserve">
<title>Ativo 5</title>
<g id="Camada_2">
	<g id="Camada_1-2">
		<path d="M490.536,811.059c-0.982-0.585-2.424-1.191-3.573-1.713c-1.029-0.471-2.091-0.869-3.176-1.191
			c-0.794-0.23-1.692-0.418-2.612-0.585l-4.743-0.836c-0.642-0.178-1.3-0.297-1.964-0.355c-1.922-0.104-4.701-0.272-7.48-0.272
			h-3.594c-5.122-0.018-10.239,0.318-15.315,1.003c-21.082,2.089-41.119,3.636-59.903,4.43l-14.25,0.188
			c-6.978,0.044-13.954-0.298-20.894-1.024c-11.788-1.136-23.398-3.682-34.579-7.584c-0.878,1.483-1.734,2.842-2.591,4.179
			l-2.089,3.113c-0.878,1.254-1.734,2.486-2.654,3.636l-1.086,1.379c-0.606,0.898-1.525,2.089-2.424,3.113l-1.128,1.421
			l-1.797,2.089l-0.146,0.522l85.018,49.498c1.969,1.132,3.655,2.696,4.931,4.576l1.337,1.88c0.78,1.695,1.355,3.476,1.713,5.307
			l0.251,1.692l0.23,10.447c1.463,29.419,8.253,40.639,13.665,44.776c0.821,0.778,1.796,1.376,2.862,1.755
			c1.518,0.666,3.134,1.082,4.785,1.233l6.728-0.146l3.615-0.878c2.591-0.794,4.179-1.254,5.788-1.818l6.937-3.197
			c2.779-1.316,5.015-2.507,7.271-3.844c0.971-0.467,1.907-1.005,2.8-1.609c2.737-1.734,4.179-2.758,5.767-3.907l2.737-1.901
			l11.032-9.758c0.878-1.107,2.257-2.737,3.573-4.304l5.244-7c1.427-1.85,2.713-3.806,3.844-5.85l2.758-4.847
			c0.94-1.818,1.609-3.218,2.277-4.618l1.609-3.343c0.226-0.816,0.563-1.596,1.003-2.319c1.3-3.335,2.416-6.739,3.343-10.196
			l2.988-14.626c0-0.898,0.209-2.465,0.209-3.886l0.501-6.707v-1.421v-1.567v-0.46C499.291,820.398,493.169,813.044,490.536,811.059
			z"/>
		<path d="M405.811,1108.171l-4.074,1.254c-5.714,2.024-11.531,3.747-17.426,5.161l-2.633,0.627
			c-4.862,1.22-9.786,2.176-14.751,2.862l-1.504,0.376l44.734,25.909l-0.209-37.797L405.811,1108.171z"/>
		<polygon points="347.203,886.444 185.38,792.442 84.838,850.465 246.515,944.467 		"/>
		<polygon points="468.138,954.057 468.138,954.057 468.138,954.057 		"/>
		<path d="M581.487,366.54l-1.797-0.564c-1.997-0.604-4.036-1.058-6.101-1.358c-1.354-0.434-2.759-0.694-4.179-0.773
			c-2.883-0.397-4.638-0.522-6.519-0.669h-1.901c-1.337,0-2.674,0-4.179,0h-3.698c-3.636,0.313-6.477,0.46-9.319,0.898l-2.006,0.272
			c-13.509,2.28-26.71,6.108-39.343,11.408c-1.959,0.917-4.106,1.36-6.268,1.295l-2.089-0.209c-2.532-0.249-4.986-1.017-7.208-2.257
			c-4.864-3.142-7.842-8.502-7.94-14.291l-0.272-68.95l-29.252,16.882l0.334,89.071l-0.397,0.773
			c-0.114,0.604-0.275,1.197-0.481,1.776l-0.878,2.089c-0.298,0.961-0.781,1.856-1.421,2.633c-1.077,1.677-2.502,3.102-4.179,4.179
			l-5.809,4.179c-3.761,2.8-7.208,5.37-10.677,8.002l-20.894,16.924c-3.489,3.009-6.519,5.767-9.549,8.462
			c-2.257,2.089-3.97,3.761-5.683,5.474c-2.654,2.549-5.14,5.098-7.605,7.585l-5.788,5.976c-4.179,4.179-7.877,8.525-11.513,12.787
			c-1.755,2.089-3.489,4.179-5.223,6.373l-5.077,6.268c-1.128,1.337-2.089,2.549-3.113,3.886l-4.43,6.08
			c-2.549,3.489-5.098,6.999-7.501,10.447l-3.448,5.391c-3.427,5.056-6.623,10.008-9.799,15.232l-8.817,15.9
			c-0.627,1.337-1.379,2.758-2.089,4.179s-1.254,2.361-1.839,3.636l-4.179,9.089c-0.878,1.63-1.63,3.28-2.361,4.91l-0.752,1.755
			c-1.713,4.179-3.448,8.17-4.847,12.244c-0.898,2.089-1.504,3.824-2.089,5.6c-1.379,3.886-2.089,6.268-2.883,8.776l-1.755,5.14
			c-0.278,1.308-0.655,2.593-1.128,3.844c-0.731,2.654-1.504,5.871-2.089,9.089l-0.94,3.468c-0.416,1.31-0.758,2.642-1.024,3.991
			c-1.086,5.015-1.839,9.925-2.633,14.835l-0.71,4.576c-0.283,1.744-0.478,3.502-0.585,5.265l-1.316,13.706
			c0.045,0.623,0.003,1.249-0.125,1.86v2.883c-0.167,3.928-0.334,7.062-0.334,10.196c0.167,28.228,3.949,49.665,11.22,63.622
			c0.516,1.023,1.117,2.002,1.797,2.925l2.089,3.803c-0.209-0.501,0.251,0.23,0.69,0.94c1.167,1.833,2.518,3.541,4.033,5.098
			l1.504,2.089c0-0.167,0.418,0.376,1.003,1.149c0.585,0.773,1.651,1.483,2.695,2.403l5.223,4.179
			c0.941,0.74,1.941,1.404,2.988,1.985c2.716,1.692,4.785,2.883,6.853,3.907c12.432,5.62,28.374,8.692,47.095,9.005h2.821
			c4.597,0,8.755,0,13.226-0.167c19.222-0.69,38.132-2.089,56.184-4.179h1.922c5.312-0.65,10.654-1.026,16.005-1.128l1.672-0.167
			c4.885-0.043,9.768,0.194,14.626,0.71c4.746,0.358,9.456,1.099,14.083,2.215c6.969,1.657,13.553,4.643,19.39,8.796
			c15.023,11.325,22.377,31.341,22.565,61.261l-0.167,5.725c-0.123,1.075-0.172,2.157-0.146,3.239l-0.585,4.346
			c-0.142,3.087-0.463,6.164-0.961,9.214c-0.313,2.089-0.648,3.949-1.086,5.746c-0.059,1.079-0.256,2.146-0.585,3.176l-0.251,1.107
			c-0.251,1.358-0.752,3.218-1.275,5.098c-0.522,1.88-1.066,3.782-1.588,5.328c-0.694,4.037-2.109,7.915-4.179,11.45l-0.69,1.504
			l-2.695,5.809l-1.128,2.257l-2.089,3.134c0.538-0.494,0.971-1.091,1.275-1.755c-0.418,1.157-0.95,2.27-1.588,3.322l-0.982,1.463
			c-1.4,2.089-2.089,3.301-2.8,4.555c-0.548,0.873-1.141,1.716-1.776,2.528l-7.626,10.343l-1.086,1.379l-3.134,3.51
			c-4.117,4.513-8.573,8.704-13.33,12.536c-2.072,1.885-4.279,3.617-6.603,5.182l-1.713,1.295c-0.895,0.78-1.902,1.421-2.988,1.901
			l-2.424,1.588c-0.501,0.397-1.066,0.815-1.651,1.191c-0.808,0.572-1.645,1.102-2.507,1.588c-4.701,2.633-9.444,4.994-14.835,7.376
			l-5.286,2.089c-1.88,0.689-3.698,1.337-5.641,1.901l-0.815,0.23c-0.611,0.26-1.239,0.477-1.88,0.648
			c-2.507,0.543-4.053,0.898-5.579,1.107c-0.738,0.242-1.503,0.397-2.277,0.46c-0.559,0.112-1.124,0.189-1.692,0.23l-1.379,0.167
			l-3.74,0.313l-11.136-0.689c-1.066-0.125-2.089-0.334-2.946-0.522l-2.089-0.543c-1.098-0.287-2.167-0.672-3.197-1.149
			c-1.298-0.335-2.528-0.894-3.636-1.651c-1.212-0.227-2.352-0.743-3.322-1.504c-2.281-1.093-4.433-2.439-6.414-4.012
			c-2.262-1.726-4.36-3.656-6.268-5.767c-0.709-0.72-1.358-1.495-1.943-2.319c-1.27-1.565-2.436-3.213-3.489-4.931
			c-0.641-0.697-1.151-1.504-1.504-2.382l-0.898-1.421c-0.254-0.566-0.54-1.117-0.857-1.651c-0.428-0.707-0.812-1.44-1.149-2.194
			l-1.567-3.385c-0.828-1.872-1.526-3.799-2.089-5.767l0,0c-0.489-0.941-0.841-1.947-1.045-2.988
			c-0.585-1.88-0.857-2.821-1.107-3.824l-0.501-1.797c-0.577-2.053-0.989-4.149-1.233-6.268c-0.368-0.972-0.593-1.993-0.669-3.03
			l-0.815-5.265l-102.213,59.234c0.125,2.089,0.251,4.179,0.439,6.268v2.236c0.146,2.967,0.313,6.122,0.627,9.402l2.236,17.572
			c0.313,1.504,0.773,3.406,1.212,5.224l1.086,5.892c0.596,1.598,1.003,3.26,1.212,4.952c0.606,2.089,1.483,4.367,2.361,6.707
			l0.919,3.259c0.293,0.689,0.794,2.089,1.275,3.656l4.033,8.943c0.35,0.777,0.762,1.525,1.233,2.236
			c0.979,2,2.155,3.896,3.51,5.662l1.546,2.695c0.501,0.606,0.878,1.191,1.191,1.651c1.437,1.984,3.015,3.863,4.722,5.62
			l2.695,2.842c2.798,2.766,5.832,5.283,9.068,7.522c3.18,1.992,6.497,3.759,9.925,5.286c13.727,5.788,31.341,6.832,52.235,3.009
			c1.63-0.272,3.218-0.669,4.847-1.066l5.892-1.421c0.852-0.362,1.742-0.628,2.654-0.794l7.585-2.319
			c11.548-3.531,22.855-7.81,33.848-12.808c2.137-1.056,4.49-1.6,6.874-1.588c9.282-0.024,16.851,7.434,16.966,16.715l0.125,63.33
			l29.837-17.196l-0.481-82.071c-0.006-5.567,2.719-10.783,7.292-13.957c47.325-32.595,85.08-73.129,112.305-120.349
			c27.162-46.677,40.743-95.151,40.43-144.064c-0.167-27.914-4.179-49.247-11.826-63.371l0,0
			c-6.025-11.689-15.511-21.233-27.162-27.329c-0.69-0.293-1.713-0.752-2.716-1.275c-13.581-6.268-30.422-9.465-49.769-9.611
			c-22.832-0.378-45.668,0.48-68.407,2.57c-6.454,0.677-12.943,0.956-19.431,0.836l0,0c-18.449,0-33.117-3.28-44.609-10.008
			c-16.444-10.217-24.801-29.857-24.968-58.503c-0.035-9.139,0.791-18.261,2.465-27.246l0.251-2.403
			c0.919-4.43,1.88-8.17,2.862-11.91l0.794-2.654c2.491-8.37,5.721-16.502,9.653-24.3c6.148-11.482,14.011-21.958,23.318-31.069
			l1.107-1.066l0.125-0.125l0.836-0.773c6.666-6.204,13.995-11.656,21.855-16.255c1.818-1.066,3.615-1.964,5.328-2.821l11.513-4.764
			c1.212-0.439,2.257-0.815,3.218-1.066c1.216-0.331,2.451-0.589,3.698-0.773c1.54-0.432,3.112-0.74,4.701-0.919l4.012-0.46
			c2.465,0,4.931,0,7.229,0.188c2.745,0.244,5.456,0.783,8.086,1.609l1.797,0.627c2.037,0.669,4.004,1.537,5.871,2.591
			c3.84,2.182,7.398,4.828,10.593,7.877c10.154,10.447,16.485,26.013,19.369,47.534l102.025-59.067
			c-1.504-46.97-13.372-79.397-35.332-96.509c-2.584-1.995-5.307-3.803-8.149-5.412l-0.46-0.23c-2.697-1.372-5.49-2.545-8.358-3.51
			L581.487,366.54z"/>
		<polygon points="378.189,1088.343 378.189,1088.363 378.21,1088.363 		"/>
		<path d="M289.515,528.531c0.94-1.567,1.546-2.654,2.089-3.719l2.988-5.349c0.878-1.609,1.797-3.218,2.862-4.847
			c27.04-45.588,62.491-85.627,104.47-117.988l-163.621-94.963c-2.654,1.88-5.182,3.74-7.647,5.662l-5.203,3.991
			c-3.343,2.591-6.498,5.203-9.611,7.814c-2.737,2.236-4.743,3.928-6.456,5.495c-2.34,2.089-4.409,3.907-6.477,5.809l-11.68,11.074
			c-2.883,2.716-5.704,5.683-8.358,8.504l-1.128,1.295c-3.698,3.719-6.979,7.292-10.071,11.032l-15.127,18.554
			c-1.567,2.089-2.612,3.468-3.656,4.973l-3.071,4.179c-0.878,1.086-1.504,1.964-2.089,2.758l-10.677,15.9
			c-1.901,3.218-3.907,6.623-5.913,9.778l-10.447,18.805c-1.086,2.089-2.194,4.346-3.301,6.665l-1.024,1.88
			c-1.149,2.319-2.277,4.931-3.427,7.605l-2.591,6.059c-0.752,1.483-1.358,3.03-1.985,4.555l-2.403,6.268
			c-1.295,3.239-2.528,6.435-3.427,9.486l-0.815,2.089l-0.125,0.293c-1.066,3.364-2.089,6.979-3.03,10.76l-1.003,3.03
			c-1.483,5.537-2.591,9.653-3.301,13.769l-1.4,6.268c-0.251,1.337-0.501,2.654-0.794,3.928l-1.672,12.536
			c-0.606,4.618-1.233,9.256-1.4,13.894l-0.167,2.298c-0.313,4.743-0.313,9.778-0.313,14.626c0,28.019,3.677,49.477,10.928,63.852
			c0.606,1.066,1.483,2.528,2.34,3.824c5.045,8.971,12.368,16.452,21.228,21.688l132.53,76.932
			c-3.792-17.255-5.635-34.882-5.495-52.548c0-3.301,0.146-6.498,0.293-9.862l0.376-5.182v-1.713
			c0.125-3.092,0.397-6.038,0.669-8.964l0.878-9.904l2.089-13.936c0.481-2.57,0.898-4.638,1.337-6.686l5.474-22.983
			c0.46-1.337,0.669-2.089,0.878-2.883l1.964-6.268c0.276-1.161,0.618-2.305,1.024-3.427l5.683-16.13
			c0.857-2.257,1.692-4.179,2.445-6.017l2.089-5.119c1.233-2.591,2.465-5.203,3.531-7.982l4.618-9.465
			C285.42,536.554,287.384,532.626,289.515,528.531z"/>
		<path d="M107.362,962.268c1.63,0.982,2.194,1.358,2.8,1.672l129.313,74.947c-0.689-2.319-1.337-4.68-1.922-7.167
			c-0.346-0.919-0.598-1.871-0.752-2.842l-0.773-3.74c-1.045-4.764-1.734-7.961-2.319-11.429l-1.17-8.358
			c-0.522-4.179-1.003-7.877-1.337-11.742c-0.313-2.654-0.481-5.725-0.648-8.964l-0.293-2.904c0.013-1.291-0.043-2.581-0.167-3.865
			v-4.179L69.585,880.427C73.764,920.669,86.426,948.144,107.362,962.268z"/>
		<path d="M419.831,581.267c-0.416,2.07-0.709,4.163-0.878,6.268l-0.439,4.555c-0.167,2.591-0.167,5.224-0.167,7.856
			c0,15.775,3.092,26.347,8.713,29.774c4.855,2.631,10.223,4.178,15.733,4.534c9.193,0.945,18.462,0.888,27.643-0.167h3.928
			c8.358-0.794,17.133-1.463,25.679-1.776c2.633-0.167,5.37-0.251,8.107-0.334c2.737-0.084,4.973-0.146,7.459-0.313h2.34
			l-97.136-56.602c-0.272,1.379-0.543,2.737-0.794,4.179L419.831,581.267z"/>
		<path d="M490.891,509.392l-1.525-2.089c-1.21-1.124-2.733-1.853-4.367-2.089c-3.176-0.564-8.901,0-18.617,5.391l32.281,18.805
			c-0.23-1.17-0.46-2.34-0.752-3.447c-0.484-2.176-1.084-4.324-1.797-6.435c-0.317-0.761-0.583-1.543-0.794-2.34
			c-0.797-1.846-1.697-3.646-2.695-5.391C491.769,510.604,491.372,509.977,490.891,509.392z"/>
		<polygon points="254.204,271.765 415.589,365.537 415.213,307.932 254.079,214.306 		"/>
		<polygon points="461.995,261.777 300.484,167.943 270.815,184.971 432.305,278.952 		"/>
		<path d="M526.85,333.005l-13.999-8.086v11.575C517.594,335.094,522.253,333.862,526.85,333.005z"/>
	</g>
</g>
</svg>
